<svg xmlns="http://www.w3.org/2000/svg" xmlns:xlink="http://www.w3.org/1999/xlink" viewBox="0 0 400 300" width="406" height="306" class="illustration styles_illustrationTablet__1DWOa"><defs><linearGradient id="linear-gradient" x1="115.49" y1="241.75" x2="131.63" y2="215.06" gradientUnits="userSpaceOnUse"><stop offset="0" stop-color="#fff" stop-opacity="0"></stop><stop offset="0.5" stop-color="#fff" stop-opacity="0"></stop><stop offset="1" stop-color="#754c24"></stop></linearGradient><linearGradient id="linear-gradient-2" x1="151.61" y1="208.38" x2="160.54" y2="192.81" gradientUnits="userSpaceOnUse"><stop offset="0" stop-color="#fff" stop-opacity="0"></stop><stop offset="1" stop-color="#754c24"></stop></linearGradient><linearGradient id="linear-gradient-3" x1="169.1" y1="177.9" x2="173.09" y2="170.74" xlink:href="#linear-gradient-2"></linearGradient><linearGradient id="linear-gradient-4" x1="177.08" y1="169.22" x2="185.34" y2="156.71" xlink:href="#linear-gradient-2"></linearGradient><linearGradient id="linear-gradient-5" x1="199.79" y1="89.39" x2="166.28" y2="93.42" gradientUnits="userSpaceOnUse"><stop offset="0" stop-color="#fff" stop-opacity="0"></stop><stop offset="1" stop-color="#1a1a1a"></stop></linearGradient><linearGradient id="linear-gradient-6" x1="303.86" y1="203.13" x2="311.11" y2="190.49" xlink:href="#linear-gradient-2"></linearGradient><linearGradient id="linear-gradient-7" x1="174.11" y1="278.24" x2="181.35" y2="265.6" xlink:href="#linear-gradient-2"></linearGradient><linearGradient id="linear-gradient-8" x1="53.72" y1="199.79" x2="60.96" y2="187.15" xlink:href="#linear-gradient-2"></linearGradient></defs><title>aaa</title><g style="isolation: isolate;"><g id="Layer_2" data-name="Layer 2"><path d="M196.69,283.59l149.75-84a7.16,7.16,0,0,0,.27-12.32L201.54,97.28a7.16,7.16,0,0,0-7.36-.11L35.77,189.11a7.16,7.16,0,0,0,0,12.38l141.25,82A19.84,19.84,0,0,0,196.69,283.59Z" fill="#d68e78"></path><polyline points="112.09 180.01 59.2 213.24 145.59 264.58 190.69 239" fill="url(#linear-gradient)" style="mix-blend-mode: multiply;"></polyline><polygon points="56.2 192.54 186.81 269.83 330.37 187.53 197.13 111.72 56.2 192.54" fill="none" stroke="#e6e6e6" stroke-miterlimit="10" stroke-width="5"></polygon><path d="M94.59,191.17c2.17.72,89.32,51.71,89.32,51.71l104.15-59.67-90.15-51.29Z" fill="#8c6239"></path><polyline points="94.59 191.17 94.59 179.98 288.06 172.03 288.06 183.21" fill="#8c6239"></polyline><path d="M94.59,180c2.17.72,89.32,51.71,89.32,51.71L288.06,172l-90.15-51.29Z" fill="#eab892"></path><polyline points="146.37 180.01 121.76 195.47 167.75 222.03 187.73 210.37" fill="url(#linear-gradient-2)" style="mix-blend-mode: multiply;"></polyline><polyline points="141.3 183.48 141.3 161.24 241.87 157.1 241.87 179.35" fill="#8c6239"></polyline><path d="M141.3,183.48c1.13.38,46.43,26.88,46.43,26.88l54.14-31L195,152.69Z" fill="#8c6239"></path><path d="M141.3,161.24c1.13.38,46.43,26.88,46.43,26.88l54.14-31L195,130.44Z" fill="#c48958"></path><polygon points="187.73 210.37 187.73 188.12 141.3 161.24 141.3 183.48 187.73 210.37" fill="#aa784f"></polygon><polyline points="166.32 154.02 148.48 165.23 183.07 185.21 197.67 176.31" fill="url(#linear-gradient-3)" style="mix-blend-mode: multiply;"></polyline><path d="M154.18,161.57c.84.28,34.43,19.93,34.43,19.93l40.14-23L194,138.73Z" fill="#8c6239"></path><polyline points="154.18 161.57 154.18 157.26 228.75 154.19 228.75 158.5" fill="#8c6239"></polyline><path d="M154.18,157.26c.84.28,34.43,19.93,34.43,19.93l40.14-23L194,134.42Z" fill="#eab892"></path><path d="M193.89,166.52c3.59-2.24,9.74-6.58,13.25-8.94L184.91,145.3,160.3,160.76l22.39,12.93C186.42,171.31,190.13,168.87,193.89,166.52Z" fill="url(#linear-gradient-4)" style="mix-blend-mode: multiply;"></path><polyline points="182.65 52.91 178.1 52.91 183.15 51.54 183.65 50.12 176.64 49.73 176.64 49.29 185.09 49.29 184.79 48.2 179.69 41.96 186.9 47.23 188.9 46.3 189.37 39.17 190.79 46.78 192.88 46.51 198.93 42 194.6 47.5 195.89 49.29 202.93 47.41 196.11 50.48 196.25 51.48 204.26 52.32 195.83 53.39 194.55 55.18" fill="#1a474e"></polyline><path d="M168.95,20.54a2.22,2.22,0,0,0,.12,2.95s-1.67-.2-1.25,2,.38,2.2.42,2.22a9.21,9.21,0,0,0,2.24,4.07s-1.3-.16-.82,2.16.77,1.64.77,1.64,0,9.4,1.25,14.41.64,2.75.64,2.75S168.43,59,168.5,63.13c0,0,.48,2.56,1.29,3.3s2.18.31,1.83,1.12-1.67,2.39-1.11,2.78,1.26.15,1.41.31,1.6,1.16,1.42,2.12-1.15,1.68-.75,2.36a2.84,2.84,0,0,0,.77.92s-1.85,2.28-1.13,3.32.78,1.16,1.13,1.12-.21,1.44,1,1.88,1.27,2.13,1.1,3S171.79,92.87,172,96s.64,3.48,3.32,3.2c0,0,.46-.5.21,1.29s-2.49,5.91-2.33,7.7a4.09,4.09,0,0,0,1,2.6,46.67,46.67,0,0,1,1,7.11,27.35,27.35,0,0,0,.72,6.47s-2,3.36-1.52,4.6a6.13,6.13,0,0,0,.76,1.56,28.48,28.48,0,0,0-1.54,9.5c.12,5,1.37,4.55.78,6.34s-1.33,2.28-1,2.87.43,1.11.59,1.19,2.78-2.21,2-.6-2.55,1.85-2.73,3.27a21.37,21.37,0,0,1-1.11,3.73c-.37,1.22-1.61,2.27.56,2.58s3.38-1.05,4.78.74,2.88,3,5.08,2.91,3.8,1,5.62,0a11.06,11.06,0,0,1,5.23-1.37,12.06,12.06,0,0,0,5.48-.56c3-.87,4.32-1.92,5.14-2s3-.93,3.1-1.61a27.08,27.08,0,0,0,0-5.93c-.31-1.24-1.62-5.47-1.15-6.35s2.08-1.38,2-2.3-1.55-7.11-1.17-7.6.31-1.11.56-2,1-1.14,1-1.62-.56-2.7,0-3.45,1.56-.7,1-1.55-.93-6.18-.8-7.17-1.92-10.08-1.3-11.13,1.17-1.61,1.85-1.42,2-.31,2.72-3.65-.19-6.55.8-6.92,2.72-.06,4-2.1,2.84-4.7,2.66-5.32-1.61-1.48-1.05-1.92A14.32,14.32,0,0,0,220,84.76l-.62-.56L220,83l-7.67-4.23L208.18,83s-.49.19-.56-.49-1.28-1-2.1-1.61a4.42,4.42,0,0,1-1.8-3.21c0-1.36-1.11-5.38-1.92-6s-1.24-1.55-2-1.79a8.4,8.4,0,0,0-1.85-.3,2.33,2.33,0,0,0-.44-2.07c-.8-1-1.66-4.94-1.66-4.94s1.17-.83,1-1.52-1-3.59-1-3.59,1-.62.86-1.24a8.8,8.8,0,0,0-.63-1.42s3.2-6.74-5.19-8.78c0,0-6.43-.53-8.18,4.37,0,0-.53,3.17.27,4.19s-.27,3-.27,3-.51,1.81-1.94,1.34-.37-1.89-.37-2.7.32-2.13-.61-2.92a11.24,11.24,0,0,1-1.7-1.91l-3.45-19.55a4.09,4.09,0,0,0,.89-2.46c-.15-1.13-.39-3.57-1.13-4.4a4.88,4.88,0,0,1-1-1.67s.94-.51.58-2.56" fill="#eeeff7"></path><path d="M168.95,20.54a2.22,2.22,0,0,0,.12,2.95s-1.67-.2-1.25,2,.38,2.2.42,2.22a9.21,9.21,0,0,0,2.24,4.07s-1.3-.16-.82,2.16.77,1.64.77,1.64,0,9.4,1.25,14.41.64,2.75.64,2.75S168.43,59,168.5,63.13c0,0,.48,2.56,1.29,3.3s2.18.31,1.83,1.12-1.67,2.39-1.11,2.78,1.26.15,1.41.31,1.6,1.16,1.42,2.12-1.15,1.68-.75,2.36a2.84,2.84,0,0,0,.77.92s-1.85,2.28-1.13,3.32.78,1.16,1.13,1.12-.21,1.44,1,1.88,1.27,2.13,1.1,3S171.79,92.87,172,96s.64,3.48,3.32,3.2c0,0,.46-.5.21,1.29s-2.49,5.91-2.33,7.7a4.09,4.09,0,0,0,1,2.6,46.67,46.67,0,0,1,1,7.11,27.35,27.35,0,0,0,.72,6.47s-2,3.36-1.52,4.6a6.13,6.13,0,0,0,.76,1.56,28.48,28.48,0,0,0-1.54,9.5c.12,5,1.37,4.55.78,6.34s-1.33,2.28-1,2.87.43,1.11.59,1.19,2.78-2.21,2-.6-2.55,1.85-2.73,3.27a21.37,21.37,0,0,1-1.11,3.73c-.37,1.22-1.61,2.27.56,2.58s3.38-1.05,4.78.74,2.88,3,5.08,2.91,3.8,1,5.62,0a11.06,11.06,0,0,1,5.23-1.37,12.06,12.06,0,0,0,5.48-.56c3-.87,4.32-1.92,5.14-2s3-.93,3.1-1.61a27.08,27.08,0,0,0,0-5.93c-.31-1.24-1.62-5.47-1.15-6.35s2.08-1.38,2-2.3-1.55-7.11-1.17-7.6.31-1.11.56-2,1-1.14,1-1.62-.56-2.7,0-3.45,1.56-.7,1-1.55-.93-6.18-.8-7.17-1.92-10.08-1.3-11.13,1.17-1.61,1.85-1.42,2-.31,2.72-3.65-.19-6.55.8-6.92,2.72-.06,4-2.1,2.84-4.7,2.66-5.32-1.61-1.48-1.05-1.92A14.32,14.32,0,0,0,220,84.76l-.62-.56L220,83l-7.67-4.23L208.18,83s-.49.19-.56-.49-1.28-1-2.1-1.61a4.42,4.42,0,0,1-1.8-3.21c0-1.36-1.11-5.38-1.92-6s-1.24-1.55-2-1.79a8.4,8.4,0,0,0-1.85-.3,2.33,2.33,0,0,0-.44-2.07c-.8-1-1.66-4.94-1.66-4.94s1.17-.83,1-1.52-1-3.59-1-3.59,1-.62.86-1.24a8.8,8.8,0,0,0-.63-1.42s3.2-6.74-5.19-8.78c0,0-6.43-.53-8.18,4.37,0,0-.53,3.17.27,4.19s-.27,3-.27,3-.51,1.81-1.94,1.34-.37-1.89-.37-2.7.32-2.13-.61-2.92a11.24,11.24,0,0,1-1.7-1.91l-3.45-19.55a4.09,4.09,0,0,0,.89-2.46c-.15-1.13-.39-3.57-1.13-4.4a4.88,4.88,0,0,1-1-1.67s.94-.51.58-2.56" fill="url(#linear-gradient-5)" style="mix-blend-mode: multiply;"></path><path d="M192.38,47a6.82,6.82,0,0,0-1.15-.22c-.05,1-.07,1.91-.08,2.87a5.81,5.81,0,0,1,.69.18Q192.12,48.4,192.38,47Z" fill="#1a474e"></path><path d="M170,14.34a4,4,0,0,1,3.29,0V17a8.82,8.82,0,0,1,1.15-1.53c.23-.08-.82,2-.41,1.8s1.6-1.94,1.85-1.66-1.44,2-.94,1.93,1.6-1.6,1.88-1.38-.55,1.74-.55,1.74,1.19-.1,1,1.19-1.47,1.48-3.21,1.64-7.79.56-8-.91.53-1.44.53-1.44-.44-1.4-.21-1.72,1.24,1.65,1.51,1.24,1.42-.37,1-.78-1.51-2-1.05-1.88a10.1,10.1,0,0,1,1.83,1.47s-.49-1.7-.24-1.7,1.09,1.6,1.12,1.51S170,14.34,170,14.34Z" fill="#6de1fc"></path><path d="M188.2,55.65a.65.65,0,0,0,.7-.67A.88.88,0,0,0,188,54c-.29.05-.72.56-1.19.8a4.72,4.72,0,0,1-1.43.24s.41.08,1,.13S187.63,55.55,188.2,55.65Z" fill="#1a474e"></path><path d="M190.5,54.37a1.46,1.46,0,0,1,.78-.47,2.54,2.54,0,0,1,1.38.24.76.76,0,0,1,.47.85c-.1.24-.4.76-.65.67s-1.2-.79-1.46-.69a.48.48,0,0,0-.37.59c.05.35.33,1,.37,1.31a1.3,1.3,0,0,1-.19.84c-.14.23-.23.35,0,.52s.58.3.61.52,0,.54-.16.61-.54.31-.8.24a4.57,4.57,0,0,0-1-.1c-.17,0-.17-.12.1-.23a8.28,8.28,0,0,1,1.12,0c.21-.05.42-.07.4-.28s-.28-.45-.68-.23a.67.67,0,0,0-.65-.09c-.38.14-.31.33-.58.35a1.12,1.12,0,0,1-.52-.12,1.69,1.69,0,0,0,.47-.19c.23-.14.37-.37.65-.33a2.14,2.14,0,0,0,.63,0c.07,0,.05-.47.05-.47a.69.69,0,0,1-.45.17,2.63,2.63,0,0,1-.92-.31c-.17-.12-.35-.45-.07-.44s.68.23.92.17.51-.14.59-.35a8.42,8.42,0,0,0-.12-1.83A3.73,3.73,0,0,1,190.5,54.37Z" fill="#1a474e"></path><path d="M185.55,61.77a2.55,2.55,0,0,0,.36-1.77c-.23-.83-.44-1.07-.78-1.17s-.88-.13-.73-.49.62-.42.39-.75-.86-1.07-.42-1.4,1.36-.52,1.46-1.13-.63-.65.26-1.17,3.1-1.63,3.64-2.57c0,0,3.51,1.77,3.85,2.06s.18,1.27.18,1.27.91-.7.75-.34a4.22,4.22,0,0,0-.49,1.35c0,.34-1.33.68-1.46,1.72s.81,1.93.23,2.6a4.85,4.85,0,0,1-2.26,1.48c-.75.18-3.67-.52-3.75-.42s1.93,3.8,2.26,3.51.1-1.8.49-1.9.78-.23.75.21-.26,4.14.05,4.34.23-.21.78.1,1,.21,1.14.52,3.07.05,3.07,0-1.77-.23-1.85-1a9.52,9.52,0,0,1,0-2.76c.18-.13.34.91.68.88s.68-.29.62.23A6.19,6.19,0,0,0,195.1,67a19.17,19.17,0,0,0,2.45,0s-2.65-7.08-3-7.88.42-1,.73-1.35a1.08,1.08,0,0,0,.39-1c-.08-.36-1-1.2-1.07-1.61s.05-.52.23-.55a.66.66,0,0,0,.31-.71,33.1,33.1,0,0,0-5.28-3.25c-.6-.05-.44.49-1.59,1.17a29,29,0,0,1-3.41,1.56c-.44.18-.62.17-.36.52s.65.47.23.84-.94.28-.88.93.47.6.18,1.33-1.54,2-1.2,2.16,1.09-.68,1.43-.1S185.58,60.52,185.55,61.77Z" fill="#1a474e"></path><path d="M183.15,51.49A5.29,5.29,0,0,0,183,52.8s.57.38.73.22.2-.35.5-.75C183.88,52,183.51,51.75,183.15,51.49Z" fill="#1a474e"></path><path d="M183.65,50.07a5.87,5.87,0,0,0-.39,1c.41.31.83.59,1.23.9a6.44,6.44,0,0,1,.6-.62C184.62,50.9,184.13,50.5,183.65,50.07Z" fill="#1a474e"></path><path d="M185.69,47.89a5.75,5.75,0,0,0-1,.77c.45.65.9,1.31,1.39,1.93a6.8,6.8,0,0,1,.81-.42A23,23,0,0,1,185.69,47.89Z" fill="#1a474e"></path><path d="M187.25,47.18a7.23,7.23,0,0,0-1.19.49A21.89,21.89,0,0,0,187.31,50c.22-.08.46-.15.7-.21C187.73,48.93,187.46,48.06,187.25,47.18Z" fill="#1a474e"></path><path d="M190.79,46.73a9.64,9.64,0,0,0-1.08,0l-.34,0c.05.93.11,1.86.24,2.78a6.37,6.37,0,0,1,1.1,0C190.72,48.62,190.74,47.68,190.79,46.73Z" fill="#1a474e"></path><path d="M194.08,47.79a5.14,5.14,0,0,0-1.28-.67q-.26,1.42-.54,2.85a6.07,6.07,0,0,1,.93.47Q193.6,49.1,194.08,47.79Z" fill="#1a474e"></path><path d="M195.38,49.2a5.11,5.11,0,0,0-.95-1.12c-.31.86-.6,1.73-.87,2.61a7,7,0,0,1,.71.59C194.64,50.59,195,49.89,195.38,49.2Z" fill="#1a474e"></path><path d="M196.11,50.89a6.72,6.72,0,0,0-.48-1.24l-1,2c.19.21.36.41.51.6Z" fill="#1a474e"></path><path d="M195.37,52.57a6.2,6.2,0,0,1,.46.77l.57-.29a7.38,7.38,0,0,0-.16-1.62Z" fill="#1a474e"></path><path d="M188.93,46.82a10.08,10.08,0,0,0-1.26.24c.21.89.48,1.77.76,2.64.23,0,.48-.08.74-.11C189.05,48.67,189,47.74,188.93,46.82Z" fill="#1a474e"></path><path d="M184.38,49a5.44,5.44,0,0,0-.51.69c.51.46,1,.89,1.56,1.35l.29-.21C185.25,50.24,184.82,49.61,184.38,49Z" fill="#1a474e"></path><path d="M172.67,53.58a6.24,6.24,0,0,1,.22,3.16,15.34,15.34,0,0,0,.54,5.15l-1.3-1.63-1.68,4.07L171.93,59s-2.8,1.19-2.85,1.68,2.5-1.9,2.82-2.88a15.37,15.37,0,0,0,.49-2.61L171,56.52Z" fill="#1a474e"></path><path d="M179,53.06c0,.65-2.93,11.72-7.73,10.71,0,0,1.5,1.09,4.54-1.38S179,53.06,179,53.06Z" fill="#1a474e"></path><path d="M179,59.61a.19.19,0,0,0,0,0,15.13,15.13,0,0,0,1.15-4.74c0-.28-.42-.28-.44,0a14.42,14.42,0,0,1-1.29,5v0a9.3,9.3,0,0,1-6.3,5.36c-.27.06-.16.49.12.42a9,9,0,0,0,4.26-2.32l-.26.37c-.87,1.18-2.35,3.33-3.95,3.44-.28,0-.28.46,0,.44,1.65-.11,2.91-1.85,3.85-3a20.27,20.27,0,0,0,2.65-4.45l0-.08C178.85,59.86,178.91,59.74,179,59.61Z" fill="#1a474e"></path><path d="M180.71,59.9a.18.18,0,0,0-.25,0l-.61.69c.12-.44.23-.89.33-1.34.06-.27-.36-.39-.42-.12-.17.74-.37,1.48-.57,2.21l-.16.18a.22.22,0,0,0,0,.32v0l-.29.38c-.16.23.21.45.38.22a.21.21,0,0,0,.24-.15l.08-.27c.46-.62.94-1.23,1.43-1.82A.24.24,0,0,0,180.71,59.9Z" fill="#1a474e"></path><path d="M180,63.81a.19.19,0,0,0-.3.06l-.06.13a.54.54,0,0,1-.87-.58.21.21,0,0,0-.26-.26.2.2,0,0,0-.3.13c-.13.6-.13,1.4.54,1.67s1-.22,1.24-.67a1.07,1.07,0,0,0,.14-.17A.2.2,0,0,0,180,63.81Z" fill="#1a474e"></path><path d="M181,62.1a.18.18,0,0,0-.23.15c0,.26-.08.51-.13.76-.53,1.59-1.07,3.35-2.83,3.84a.22.22,0,0,0,.12.42,3.39,3.39,0,0,0,1.94-1.43,6.07,6.07,0,0,1-2,2.54c-.22.18.09.49.31.31a6,6,0,0,0,2-2.37,15.88,15.88,0,0,0,.91-3.22c.09-.27.18-.54.28-.79S181.14,62,181,62.1Z" fill="#1a474e"></path><path d="M176.78,64.74a74,74,0,0,0-3.1,9,.22.22,0,0,0,.42.12,74,74,0,0,1,3.1-9C177.31,64.6,176.89,64.48,176.78,64.74Z" fill="#1a474e"></path><path d="M174.7,66.88a11.94,11.94,0,0,1-1.23,1.86,5,5,0,0,1-.64.63,3.69,3.69,0,0,1-.81.53l-.06,0h0a.22.22,0,0,0-.27.15v0a.22.22,0,0,0,.15.27c.48.19,1.33-.62,1.64-.92a10.21,10.21,0,0,0,1.65-2.31A.22.22,0,0,0,174.7,66.88Z" fill="#1a474e"></path><path d="M180.69,66.74v0c.09-.27-.33-.38-.42-.12-.35,1-.68,2-1,3a18.68,18.68,0,0,1-4,5.33c-.21.19.1.5.31.31a19.14,19.14,0,0,0,2.94-3.49l-.17.52a.22.22,0,0,0,0,.08A11.51,11.51,0,0,1,173.44,79c-.24.15,0,.53.22.38a12,12,0,0,0,2.89-2.63,43.33,43.33,0,0,0-1.43,4.74.22.22,0,0,0,.42.12c.42-1.45.75-3,1.32-4.47a.23.23,0,0,0,.26.1c-.33,1.41-.62,2.83-.86,4.27,0,.28.38.39.42.12a69.45,69.45,0,0,1,3.5-13q.23-.54.43-1.1l.16-.41a.3.3,0,0,0-.1-.31Z" fill="#1a474e"></path><path d="M184,61.2c0-.28-.47-.16-.42.12a15.47,15.47,0,0,1-.52,7.53c-.09.27.34.38.42.12A16,16,0,0,0,184,61.2Z" fill="#1a474e"></path><path d="M188.91,71.32a3.53,3.53,0,0,1-.3-.3.21.21,0,0,0,.18-.32.41.41,0,0,0-.29-.22.22.22,0,0,0-.25.11A9.47,9.47,0,0,1,187,66.83c0-.28-.47-.16-.42.12a11.36,11.36,0,0,0,1,3.4s0,0,0,.05a.22.22,0,0,0-.29-.16.22.22,0,0,0-.39-.09c0-.1,0-.19,0-.29a.21.21,0,0,0-.16-.2l0-.11c0-.27-.35-.4-.42-.12L186,70.5c0-.27.09-.54.14-.8a.22.22,0,0,0,0-.17v0a.22.22,0,0,0-.42-.12,15.07,15.07,0,0,0-.61,4.39.19.19,0,0,0,.17.2.22.22,0,0,0,.34-.11l.3-1.17c0,.28,0,.57,0,.86s.39.31.43.06l.16-1.07c0,.17,0,.33,0,.5a.22.22,0,0,0,.43.06,10.28,10.28,0,0,0,.21-1.16.18.18,0,0,0,.24-.15l0-.15a.2.2,0,0,0,.29-.13l.1-.34c.05.12.11.24.18.35a.22.22,0,0,0,.38,0l.05-.08c.07.07.13.15.21.21S189.13,71.5,188.91,71.32Z" fill="#1a474e"></path><path d="M191.33,69.59,179.27,87.66c-.16.23.22.45.38.22l12.06-18.07C191.86,69.58,191.48,69.36,191.33,69.59Z" fill="#1a474e"></path><path d="M192.39,75a34.66,34.66,0,0,1-8.57,9.95c-.37.3-.75.59-1.14.88a.21.21,0,0,0-.35-.06c-.34.34-.66.69-1,1a17.72,17.72,0,0,0-3.44,3.13,39.54,39.54,0,0,1,8.8-14.66c.19-.2-.12-.51-.31-.31A40,40,0,0,0,177,91.31a7.88,7.88,0,0,0-.73,2.12.22.22,0,0,0,0,.11c-.18.59-.34,1.18-.48,1.77.05-3.75.45-7.5,2.28-10.85.13-.25-.24-.47-.38-.22-2.15,4-2.37,8.42-2.34,12.82l-.25,1.05a.22.22,0,0,0,.26.27v.14a.22.22,0,0,0,.44,0q0-.43,0-.86c.08-.63.2-1.25.34-1.87a28.22,28.22,0,0,1,.9-2.79A10.32,10.32,0,0,1,179,90a24.34,24.34,0,0,0-1.23,2.16c-.13.25.25.47.38.22a24.25,24.25,0,0,1,3.59-5.3c1.12-.84,2.28-1.65,3.31-2.57a36.35,36.35,0,0,0,7.73-9.26C192.9,75,192.52,74.75,192.39,75Z" fill="#1a474e"></path><path d="M187.38,85.45c-.3.49-.59,1-.88,1.48a.22.22,0,0,0-.17.09c-3,4-4.72,8.59-6.45,13.18-1.31,3.47-2.78,6.92-3.81,10.49.24-1.33.52-2.65.86-4a.22.22,0,0,0-.27-.26,66.65,66.65,0,0,1,4.81-13.31c.12-.25-.25-.47-.38-.22a67.13,67.13,0,0,0-4.72,12.92.24.24,0,0,0-.39,0,12.21,12.21,0,0,0-1.15,2.11.2.2,0,0,0,0,.09h0c-.06.14-.12.27-.17.41a.18.18,0,0,0,.07.22,14.08,14.08,0,0,0,.22,5.06.2.2,0,0,0,.25.15c-.06.52-.11,1-.15,1.55,0,.24.39.3.43.06a43.68,43.68,0,0,1,2.35-8.63q-1.16,3.84-2,7.77c-.06.27.36.39.42.12a91.72,91.72,0,0,1,11.53-29.1C187.9,85.43,187.52,85.21,187.38,85.45ZM176,107.18a.17.17,0,0,0,0-.07l.25-.69c-.11.45-.22.91-.32,1.37Z" fill="#1a474e"></path><path d="M205.38,93.95c-.24-1.06-.5-2.11-.77-3.16a.21.21,0,0,0,0-.17A71.54,71.54,0,0,0,199.9,74.2c-.05-.31-.1-.61-.14-.91s-.47-.28-.44,0,.07.48.11.72a.23.23,0,0,0,0,.18l.05.13a20.29,20.29,0,0,1,.47,4.71,8.33,8.33,0,0,1-1.9,4.19c0-.43,0-.85.05-1.28.13-1.5.25-3,.33-4.49,0-.12,0-.24,0-.36a.21.21,0,0,0,.23,0c.29-.37.1-1-.05-1.49a.24.24,0,0,0,.25-.33,10.32,10.32,0,0,0-.7-1.31,6.87,6.87,0,0,0-.33-1,.18.18,0,0,0-.3-.06,6,6,0,0,1-1-2.83.21.21,0,0,0-.15-.2v0a.22.22,0,0,0-.44,0c0,.15,0,.29,0,.44-.41,2.14-1.8,4.09-2.65,6.07a44,44,0,0,0-2.07,6.09.22.22,0,0,0,.42.12A43.48,43.48,0,0,1,194,75.84c.66-1.47,1.59-2.91,2.11-4.46a8.53,8.53,0,0,0,1.65,3.54l.06,0V75a.24.24,0,0,0-.21.27,19.36,19.36,0,0,1,0,4.89c0-.16,0-.33,0-.49a.22.22,0,0,0-.44,0c0,1.11,0,2.22.06,3.34-.16,1-.33,2.09-.45,3.14a24.83,24.83,0,0,0-.06,5.2,9.4,9.4,0,0,1-.26,4.13c-.08.14-.17.28-.27.43a10.37,10.37,0,0,0-1.28,2c-.11.26.32.37.42.12a5.29,5.29,0,0,1,.52-.93.18.18,0,0,0,.18-.07,4.88,4.88,0,0,0,.78-1.29l.11-.17a4.62,4.62,0,0,0,.62-2.47c0-.25,0-.5,0-.75a.2.2,0,0,0,.19-.21l0-5.41a.21.21,0,0,0,.18-.2c0-.45,0-.9.07-1.36a.21.21,0,0,0,.14-.05l.07,0a.19.19,0,0,0,.1.12,7.19,7.19,0,0,1,2.44,2.08c.09.31.18.62.27.92a.19.19,0,0,0-.09.23q.9,3,1.5,6.12c.1.65.19,1.29.27,1.95,0,.28.47.28.44,0v-.09a.22.22,0,0,0,.05-.19q-.16-1-.35-1.91c-.18-1.09-.38-2.18-.62-3.26.13.1.36.05.35-.15,0,.06,0,.12,0,.18,0,.22.31.19.4,0,.26.7.52,1.41.75,2.13.09.27.51.15.42-.12A51.3,51.3,0,0,0,202,87.71a1.21,1.21,0,0,0-.21-1.16,5.44,5.44,0,0,0-1.25-1.63,2.15,2.15,0,0,0-2.57-.21c0-.24,0-.48,0-.73a10.21,10.21,0,0,0,2.33-4.55s0-.1,0-.15q.75,1.85,1.41,3.73c.55,1.91,1,3.83,1.49,5.77a.2.2,0,0,0,.3.13q.67,2.5,1.26,5a.19.19,0,0,0,.16.15C205.05,94.33,205.44,94.21,205.38,93.95Zm-5.94-8.74a.23.23,0,0,0,.07.28,5.9,5.9,0,0,1,.74.66,7.59,7.59,0,0,0-1.61-1.2A2.06,2.06,0,0,1,199.44,85.21Zm3.43-.29Q202,82,201,79.08l-.08-.24,0,0-.34-1a.22.22,0,0,0-.2-.15c0-.52-.09-1-.17-1.56a71,71,0,0,1,3.24,10.62Q203.17,85.82,202.87,84.92Z" fill="#1a474e"></path><path d="M208.49,125.65a7.44,7.44,0,0,0-.59.46q-.74-4.35-1.24-8.72a.23.23,0,0,0,.13-.1.71.71,0,0,0,.12-.29,1.08,1.08,0,0,0,.47-.2c.23-.13.06-.43-.17-.4l-.33,0A108.46,108.46,0,0,0,205,103a.18.18,0,0,0,0-.19l-.06-.2a.22.22,0,0,0,.36-.21c-.15-.72-.33-1.43-.54-2.13l.15.37a8.44,8.44,0,0,0,.78,1.92c.12.21.5.07.4-.17l-.78-1.91a8,8,0,0,1-.24-1.18.24.24,0,0,0-.32-.2l-.17-.41a.23.23,0,0,0-.42,0h0v0c0-.17-.14-.24-.27-.2a.21.21,0,0,0-.38.06,5.18,5.18,0,0,0,.09,3.4.22.22,0,0,0,.18.14q.35,3.12.86,6.21.35,2.07.77,4.12.21,1,.44,2,.6,6.07,1.63,12.1l-.12.11c-.09-.62-.19-1.23-.27-1.85a.2.2,0,0,0,0-.28q-.61-4.33-1.07-8.67c0-.28-.47-.28-.44,0q.47,4.41,1.09,8.81a2.84,2.84,0,0,0-.45.65h0c0-.28-.47-.16-.42.12l.39,2.3a.2.2,0,0,0-.2.21l0,1.32a7.11,7.11,0,0,1-3.43-1.07c-.24-.15-.46.23-.22.38a7.57,7.57,0,0,0,3.66,1.13v.68a.22.22,0,0,0-.32.19q-.09,5.62.16,11.24a67.58,67.58,0,0,0-.29,11.71c0,.28.45.28.44,0a67.59,67.59,0,0,1,.13-10.11.19.19,0,0,0,.22-.21v0a.21.21,0,0,0,.3-.2l-.2-13.26.07,0,.37,2.18c0,.25.4.17.42-.05.15.12.42-.07.32-.3s-.12-.27-.17-.4a.21.21,0,0,0,.24-.26c-.16-.49-.29-1-.41-1.49l-.18-1.13a.19.19,0,0,0,.16-.12.24.24,0,0,0,.31-.26l0-.11a11.85,11.85,0,0,0,1.23-1.69C208.9,125.77,208.68,125.52,208.49,125.65Zm-4.2-23.36-.09-.81c0-.07,0-.14,0-.21.07.33.15.67.25,1l0,.1A.24.24,0,0,0,204.29,102.29Zm1.05,6.76c-.34-2.08-.62-4.18-.81-6.28.42,2,.78,4.11,1.08,6.17A.24.24,0,0,0,205.34,109.06Z" fill="#1a474e"></path><path d="M203.48,157.61a43.05,43.05,0,0,1-.72-7.73.22.22,0,0,0,0-.09q.46-7.52,1.29-15c0-.28-.41-.28-.44,0q-.72,6.45-1.16,12.92a.21.21,0,0,0-.16,0l0-2.59a.22.22,0,0,0-.44,0v.8q.06-6,.37-12c0-.28-.42-.28-.44,0q-.49,9-.37,18.1a.21.21,0,0,0,0,.09v.12c0,.2,0,.4,0,.59a.19.19,0,0,0,.08.15c0,.27.06.54.1.81s.08.76.13,1.13c-.11-.22-.21-.44-.31-.67q-.64-11.11-.56-22.24a.22.22,0,0,0-.44,0q-.07,8.92.34,17.83a.21.21,0,0,0-.26.2,14,14,0,0,1-.31,3.09,26.07,26.07,0,0,1-1.28,3,.22.22,0,0,0,.13.31.23.23,0,0,0,.31.26.22.22,0,0,0,.33,0,17.32,17.32,0,0,0,1.31-2.53c0,.25,0,.5,0,.75h0a.18.18,0,0,0,0,.2,6,6,0,0,0,1.37,2.21c.06.22.11.44.18.66a.22.22,0,0,0,.43,0l0,.07a.22.22,0,0,0,.38.07,1,1,0,0,0,.12-.49Zm-2.61-4.38a16.7,16.7,0,0,1-.74,1.71,14.41,14.41,0,0,0,.48-1.69q.15-.42.29-.85c0,.24,0,.49,0,.73A.22.22,0,0,0,200.87,153.23Z" fill="#1a474e"></path><path d="M197.66,156.42a.21.21,0,0,0,0-.11q.34-8,.21-16a.22.22,0,0,0-.44,0q.12,7.82-.2,15.64l-.77-1a50.23,50.23,0,0,1-.23-8.39c.19-1.16.37-2.33.52-3.5,0-.28-.4-.28-.44,0l0,.11a.23.23,0,0,0-.22.21q-.19,1.58-.28,3.16-.5,3-1.19,6l-.2-.24c-.83-.93-2.74-.54-3.85-.51a.22.22,0,0,0,0,.44c.7,0,1.39,0,2.09,0a1.71,1.71,0,0,1,1.25.35,3.59,3.59,0,0,1,.57.54l0,.09a.22.22,0,0,0,.3.26l.07.09,1.24,1.61,0,.29L192,155c-.28,0-.28.41,0,.44l4.66.39.69.89c.17.22.55,0,.38-.22ZM195,152.9q.41-1.77.76-3.56,0,2.42.24,4.83Q195.51,153.52,195,152.9Z" fill="#1a474e"></path><path d="M191.8,145.67a34.83,34.83,0,0,1-.63,4.57c.12-1.58.26-3.15.45-4.73,0-.28-.4-.28-.44,0q-.31,2.61-.49,5.24a.21.21,0,0,0,.34.17l0,.1c-.06.27.36.39.42.12a35.62,35.62,0,0,0,.81-5.47C192.25,145.38,191.82,145.39,191.8,145.67Z" fill="#1a474e"></path><path d="M189.26,155.09a.19.19,0,0,0-.15-.15c0-.37,0-.74,0-1.11a.24.24,0,0,0,0-.09c-.05-.21-.38-.27-.42,0v.07a.18.18,0,0,0-.12.14c-.05.25-.11.5-.17.75a.17.17,0,0,0-.14.11l-.77,1.7-.1.23c-.28.46-.56.91-.81,1.38-.09.17.11.44.3.3l.08-.07a.2.2,0,0,0,.11,0,3.8,3.8,0,0,0,1.15-.15,1.29,1.29,0,0,0,1-.22.91.91,0,0,0,.09-.61.26.26,0,0,0,.14-.2A6.76,6.76,0,0,0,189.26,155.09Zm-.59,2.61a.18.18,0,0,0-.11-.06.18.18,0,0,0-.19-.11l-.42.05c.08-.23.15-.47.23-.7,0,.05,0,.11,0,.16,0,.24.38.3.43.06s.1-.56.15-.84a3.56,3.56,0,0,0,.07.65c0,.12,0,.23,0,.35C188.82,157.58,188.82,157.67,188.68,157.7Z" fill="#1a474e"></path><path d="M187.76,149.52c-.05.2-.1.41-.14.62v0c0-.28-.38-.39-.42-.12l-.07.45a.19.19,0,0,0-.2.15c-.19.95-.42,1.88-.66,2.81a61.2,61.2,0,0,0,1.19-8.21c0-.28-.42-.28-.44,0a60.34,60.34,0,0,1-.91,6.85c0-.2,0-.4,0-.61l.13-.36a.19.19,0,0,0-.1-.24c.08-2.17.22-4.34.44-6.51,0-.28-.41-.28-.44,0-.23,2.34-.38,4.69-.46,7a46,46,0,0,1-2.72,6.49c-.13.25.25.47.38.22a46.71,46.71,0,0,0,2.31-5.28c0,.5,0,1,0,1.49l0,.16a.21.21,0,0,0,0,.17s0,.08,0,.11a.18.18,0,0,0-.08.16c0,.28,0,.33.08.46s0,.17,0,.25a.22.22,0,0,0,.43,0,.2.2,0,0,0,.1-.12c.13-.45.26-.89.38-1.34a3,3,0,0,0,0,1.18.21.21,0,0,0,.39,0,.19.19,0,0,0,.18-.15c.09-.43.17-.85.26-1.28.05-.24.1-.49.15-.73.23-1.19.45-2.38.64-3.57C188.22,149.37,187.83,149.24,187.76,149.52Z" fill="#1a474e"></path><path d="M185.68,144a59.28,59.28,0,0,1-2.5,9.15c-.1.27.33.38.42.12a59.28,59.28,0,0,0,2.5-9.15C186.15,143.86,185.73,143.74,185.68,144Z" fill="#1a474e"></path><path d="M183.45,153.52l-.7,1.25c-.23.42-.52,1.23-1,1.43a4.76,4.76,0,0,1-1.42,0h-.4a21.87,21.87,0,0,0,1.08-6.69.22.22,0,0,0-.44,0c0,.48,0,1-.06,1.43l0-.06c0-.46.06-.91.07-1.37a.22.22,0,0,0-.44,0c0,.38,0,.76-.06,1.14a.22.22,0,0,0,0,.05c-.1.77-.23,1.53-.37,2.29a25.48,25.48,0,0,1-1.69,4.6,6.3,6.3,0,0,1-1.71.63l-2-.14c-.28,0-.28.42,0,.44l.27,0a.2.2,0,0,0,.2.27l.68,0a.22.22,0,0,0,.17,0l.59-.11.26,0,2.12.14a.21.21,0,0,0,.16-.35l.12-.14.1,0a.2.2,0,0,0,.1-.34,4.69,4.69,0,0,0,.24-.75.23.23,0,0,0,.39-.08c.06-.16.11-.32.17-.48l1.26,0a2.34,2.34,0,0,0,1.11-.07c.29-.16.47-.68.62-.95q.51-.94,1-1.87A.22.22,0,0,0,183.45,153.52Zm-3-1.82.08-.41c-.06.71-.16,1.41-.29,2.11C180.3,152.83,180.37,152.26,180.42,151.69Z" fill="#1a474e"></path><path d="M178.88,150.57a.21.21,0,0,0-.31.12l-1,4a.21.21,0,0,0,.14.26l-.15.54a.22.22,0,0,0,.42.12l1.34-4.93A.22.22,0,0,0,178.88,150.57Z" fill="#1a474e"></path><path d="M196.72,130.49l2.17-1.67-.43-22.24s-.56,4-1.35,4.93l-.79,1s.24,16.92-.48,18-3.34,1.91-2.54,2.46a17,17,0,0,0,2.72,1.27Z" fill="#1a474e"></path><path d="M178.94,151.3s1.12-2.53,1.8-3,1.79-.6,1.91-1.49-.94-1.74.51-2.71,12.74-6.61,13.69-7.7c0,0,.27-.14,0-.61s-3.7-2.18-3.7-2.18l1.32-26-1.32,3.6s-2.6,22.65-1.69,23.67,4,1.36,4,1.36l-12.26,6.87s-2,1.29-1.27,2.52-.29.82-.72,1.77-4,1.29-3.66,2.58A1.72,1.72,0,0,0,178.94,151.3Z" fill="#1a474e"></path><path d="M194.47,107.57s-4.33,7.35-5.73,8.82-3.11,4.19-4.78,5.75-2.84,4.51-4.63,5.52a16.41,16.41,0,0,0-2.64,1.78s4.74-2.86,6.26-4.73,6.26-7.07,6.26-7.07l5-6.53" fill="#1a474e"></path><polyline points="187.23 118.87 185.56 131.16 189.21 117.63" fill="#1a474e"></polyline><path d="M184.63,121.83a3.7,3.7,0,0,1-.32,3.19,44.52,44.52,0,0,1-5,4.42s2.38,1.13,2.3,2.36-2,6.83-1.79,7.92.23,1,.39,1.79,3.29-9.1,3.67-10.88S187.08,120,187.08,120" fill="#1a474e"></path><path d="M178.4,142.74s1.94-7.25,1.94-8.51-.76-4.56-1.65-4.43.83,1.59.26,2.29-.88-1.93-2.25-1.32-2.7,3.09-1.69,2.46,1.53-1.71,1.69-.76-1.88,3.42-1.12,3.81,1.33-2.47,1.93-1.59-.66,2.16-.28,2.92,1.46,2.11,1.17,2.45-1.55-1.25-2.31-1.31,0,1.52.61,2.41,1,1.52.82,2-3.6,4.63-3,4.51,2-1.65,1.47-.38-.25,1.33-.25,1.33,3-5.13,3.18-4.78-1.24,5.41-1.24,5.41,2.19-5.57,2.06-6.34S178.4,142.74,178.4,142.74Z" fill="#1a474e"></path><path d="M171.81,27.06c.28-.4,0-1-.27-1.36a.24.24,0,0,0-.08-.38,1.36,1.36,0,0,1-.31-.18.64.64,0,0,0,.21-.91.19.19,0,0,0,0-.29,2.27,2.27,0,0,0-2.28-.45c-.26.09-.15.52.12.42a1.84,1.84,0,0,1,1.59.14.21.21,0,0,0,.06.15l.13.16-.31.36c-.06,0-.24-.08-.3-.09a2.28,2.28,0,0,0-.63-.05,2.43,2.43,0,0,0-1.11.35.22.22,0,0,0,.22.38,2,2,0,0,1,1.56-.21l.15,0,0,0a1.81,1.81,0,0,0,.38.34.22.22,0,0,0,.08.26c.25.18.63.69.31.92s-.7-.11-1-.22a1.67,1.67,0,0,0-1.38,0c-.25.12,0,.5.22.38.59-.27,1.17.18,1.71.34a1.74,1.74,0,0,0,.53.09c.17.27.34.63.15.84s-.61.12-.82.06l-.31-.07a2.16,2.16,0,0,0-1.36.25c-.25.13,0,.51.22.38a2,2,0,0,1,1.6-.05.93.93,0,0,0,.85-.11C172.27,28.15,172.08,27.53,171.81,27.06Z" fill="#1a474e"></path><path d="M174.41,25a.22.22,0,0,0-.42.12c.52,1.81,1.77,4.4.71,6.17a.22.22,0,0,0,.38.22C176.25,29.57,175,27,174.41,25Z" fill="#1a474e"></path><path d="M178.06,53.34c-.13-1-.07-3-.26-4.57s-1.19-6.91-1.65-8.63-1.48-8.27-1.48-8.27,0,1.8-.78,2a1.53,1.53,0,0,0-.27-.56c-.26-.34-.16-.33-.1-.78a2.58,2.58,0,0,0,0-.66.21.21,0,0,0,0-.14,11,11,0,0,1-.27-2,14.45,14.45,0,0,1,.38-1.93,1.33,1.33,0,0,0,0-.32.22.22,0,0,0,.13-.32l-1-1.54a1.77,1.77,0,0,1-.08-.29c-.1-.56.35-.78.85-.68.27.05.39-.37.12-.42l-.25,0a17.26,17.26,0,0,1,0-2c.06-.15-.1-.31-.27-.28h0l-1,0-.16,0h0l-.4,0a.17.17,0,0,0-.18.08h-.08a.22.22,0,0,0-.15.37l.62.61c.13.13.29.34.49.33s.31-.16.43-.27l.37-.31c0,.54,0,1.08,0,1.63h0c-.43.1-.8.36-.77.85a2,2,0,0,0,0,.21.21.21,0,0,0,0,.22h0a.18.18,0,0,0,0,.06l.07.12,0,.06a4,4,0,0,0,.45.89,4.15,4.15,0,0,1,.27.74c.15.61-.16,1.07-.23,1.71a7.63,7.63,0,0,0,.16,2.21.2.2,0,0,0,0,.17,2,2,0,0,1,.07.45l-.1,0-.83,0L172,29.21c0-.28-.45-.28-.44,0l.08,2.69h-.16a.2.2,0,0,0,0-.11l-.09-2.74c0-.28-.45-.28-.44,0l.09,2.74a.21.21,0,0,0,0,.12h-.28a.18.18,0,0,0,0-.13,20.68,20.68,0,0,1-.12-2.48.22.22,0,0,0-.44,0,20.68,20.68,0,0,0,.12,2.48.22.22,0,0,0,.07.14h-.13a.22.22,0,0,0,0,.44l2.53-.07.09,0c0,.2,0,.41-.06.63q-1.33,0-2.66.15c-.28,0-.28.46,0,.44q1.35-.11,2.71-.16c.1.13.27.25.33.34a1.29,1.29,0,0,1,.16.74,2.18,2.18,0,0,1-2.27,2.08,11.88,11.88,0,0,0,2.18,4.63,10,10,0,0,1,2.45,6c.26,2.36.59,7.38.76,8.18S178.19,54.36,178.06,53.34Z" fill="#1a474e"></path><path d="M172.53,34.93a10.65,10.65,0,0,1-1.65-.14c-.28,0-.39.38-.12.42a11.41,11.41,0,0,0,1.76.16A.22.22,0,0,0,172.53,34.93Z" fill="#1a474e"></path><path d="M170.42,35.16c-.52,0-.61-.6-.39-1a.22.22,0,0,0-.38-.22,1,1,0,0,0,.77,1.64C170.7,35.61,170.7,35.17,170.42,35.16Z" fill="#1a474e"></path><path d="M170.21,30.86c-1-.73-2-1.87-1.45-3.19a.23.23,0,0,0-.29-.32,1.33,1.33,0,0,1-.27-1.63.21.21,0,0,0,.06-.28,1.07,1.07,0,0,1,.3-1.37c.23-.16,0-.54-.22-.38a1.51,1.51,0,0,0-.52,1.81,1.76,1.76,0,0,0,.42,2.22l0,0c-.43,1.43.58,2.65,1.72,3.49C170.21,31.4,170.43,31,170.21,30.86Z" fill="#1a474e"></path><path d="M166.64,19.87a15.46,15.46,0,0,0,2.3.67c.64.15,4.72.07,4.72.07l3-1A21.54,21.54,0,0,0,166.64,19.87Z" fill="#1a474e"></path><path d="M167.2,18.6a30.3,30.3,0,0,1,8.73,0A10.35,10.35,0,0,0,167.2,18.6Z" fill="#1a474e"></path><path d="M170,14.34s-1.57-1.31-1-2.54,1.65-1.52,1.69-2.75a4.27,4.27,0,0,0-.33-1.93l1.27,1.29.1-3.92s1,3.39,1.07,3.22a9.59,9.59,0,0,1,1.34-1.17,5.94,5.94,0,0,0-.1,1.64c.08.82,2.46,4.58-.72,6.17" fill="#ffc533"></path><path d="M196.5,70.06a10.67,10.67,0,0,0,2.39.64c1,.1,1.29-.4,1.59.75s.35,1.45.75,1.5.59-1.23.59-1.23a3.28,3.28,0,0,0,.43,2.28c.68.85,1.74,2.84,1.49,3.71a3,3,0,0,0,0,1.93c.15.65.5,2.25,1.25,2.55s1.25,0,.8.8-1.3.5-.65,1.15,2.1-.3,2.2,0-1.2,1.6-.6,1.5,4-3.7,4-3.7l2.25,0s-4.39,8.79-5,9.59-1.65,2.9-1.55,3.6.2,5.09.2,5.09-1.33-6.24-1.14-7.59,0-1.7.59-2.45-.18-.55-.59-.65.29-.95.29-.95,1-1,.3-.85a4.65,4.65,0,0,0-1,.3l1-2.2s-.9-.9-1.1-1-1.35-1.1-.75-1.5-1.4-2.5-1.45-4l0-1.5s-2-1.65-1.55-1.75,1.13.1,1-.25a8.85,8.85,0,0,0-.67-1.2L200.38,73a1.72,1.72,0,0,0-.65-1.6C198.89,70.7,197.31,70.86,196.5,70.06Z" fill="#44514a"></path><path d="M219.24,89.11a5.71,5.71,0,0,0-.77-1.76l1.52-2.6a3.65,3.65,0,0,0-1-.67l-1.25,2.08-.09-.14a.2.2,0,0,0-.12-.09.23.23,0,0,0-.25,0c-1.12.5-.66,2-.06,2.8-.37-.16-.75-.32-1.13-.47s-1-.51-1.47-.35-.4.6-.16,1a1.38,1.38,0,0,0-.95-.14c-.73.24,0,1,.36,1.25-.26-.17-.57-.28-.82,0-.59.61.4,1.64.79,2.07.19.21.5-.1.31-.31a5.85,5.85,0,0,1-.57-.74,2.24,2.24,0,0,1-.19-.31q-.22-.26,0-.33t.25,0a3.74,3.74,0,0,1,.73.53l.88.64c.23.17.45-.21.22-.38L214,90l0,0c.23.14.44-.23.21-.38a.67.67,0,0,1-.37-.5l.36.08a7.89,7.89,0,0,1,.95.42l1.54.72c.25.12.48-.26.22-.38l-1.63-.76a.18.18,0,0,0-.06-.21c-.22-.2-.83-.64-.06-.63a2.38,2.38,0,0,1,.65.23c.55.2,1.1.43,1.63.68.25.12.48-.26.22-.38l-.08,0a.23.23,0,0,0,.07-.35c-.42-.47-.92-1.64-.27-2.11a9.79,9.79,0,0,1,1.49,2.86.18.18,0,0,0,.12.14l-1.42,1.06a2.24,2.24,0,0,1-1.17,1c-.74.21-.85.64-.85.64a1.47,1.47,0,0,1-.37,1.11c-.48.64-1.7-.42-1.7-.42l-5.47,9a8.33,8.33,0,0,1-1.17,0v5.47l.8-.8c.42-.42,1.06.16,1.91.22s2.12-3.68,2-5.69a10.78,10.78,0,0,1,1.5-5.15c.65-1.38,2-.21,2.78-.34s1.4-2.05,1.93-3.37a19.65,19.65,0,0,1,1.42-2.69.21.21,0,0,0,.09-.14l.07-.11-.07.05A.21.21,0,0,0,219.24,89.11Z" fill="#44514a"></path><path d="M319,193.06l-1.7-2.83-21.89,11.45,8.13,4.7C308.36,201.63,313.75,197.44,319,193.06Z" fill="url(#linear-gradient-6)" style="mix-blend-mode: multiply;"></path><rect x="315.44" y="167.67" width="3.96" height="26.27" rx="1.98" ry="1.98" fill="#bc532a"></rect><path d="M327.21,173c-.91-4-5-21.44-12.17-16.3-3.69,2.63-4.73,6.74-6.2,10.76a32.05,32.05,0,0,0-2.29,10.41c-.12,7.27,7.28,8.16,12.94,8.13,3.26,0,7.92-1.94,8.68-5.48.46-2.14-.32-4.66-.78-6.75Z" fill="#2c9135"></path><path d="M327.55,173.82l-.17-.77c-.81-3.51-4.08-17.57-9.8-17.23,1.7,7.41,4.2,15.25,2.87,22.84a17.36,17.36,0,0,1-3,7.35c.76,0,1.51,0,2.23,0,3.26,0,7.92-1.94,8.68-5.48C328.79,178.43,328,175.91,327.55,173.82Z" fill="#156819"></path><path d="M188.2,269l-.28-3.38L166,277l8.13,4.7C179,277,183,273.34,188.2,269Z" fill="url(#linear-gradient-7)" style="mix-blend-mode: multiply;"></path><rect x="184.74" y="243.35" width="3.96" height="26.27" rx="1.98" ry="1.98" fill="#bc532a"></rect><path d="M196.51,248.72c-.91-4-5-21.44-12.17-16.3-3.69,2.63-4.73,6.74-6.2,10.76a32.05,32.05,0,0,0-2.29,10.41c-.12,7.27,7.28,8.16,12.94,8.13,3.26,0,7.92-1.94,8.68-5.48.46-2.14-.32-4.66-.78-6.75Z" fill="#2c9135"></path><path d="M196.86,249.49l-.17-.77c-.81-3.51-4.08-17.57-9.8-17.23,1.7,7.41,4.2,15.25,2.87,22.84a17.36,17.36,0,0,1-3,7.35c.76,0,1.51,0,2.23,0,3.26,0,7.92-1.94,8.68-5.48C198.1,254.11,197.31,251.59,196.86,249.49Z" fill="#156819"></path><path d="M67.81,190.51l-.28-3.38L45.64,198.58l8.13,4.7C58.62,198.53,62.6,194.89,67.81,190.51Z" fill="url(#linear-gradient-8)" style="mix-blend-mode: multiply;"></path><rect x="64.48" y="164.82" width="3.96" height="26.27" rx="1.98" ry="1.98" fill="#bc532a"></rect><path d="M76.25,170.19c-.91-4-5-21.44-12.17-16.3-3.69,2.63-4.73,6.74-6.2,10.76a32.05,32.05,0,0,0-2.29,10.41c-.12,7.27,7.28,8.16,12.94,8.13,3.26,0,7.92-1.94,8.68-5.48.46-2.14-.32-4.66-.78-6.75Z" fill="#2c9135"></path><path d="M76.59,171l-.17-.77c-.81-3.51-4.08-17.57-9.8-17.23,1.7,7.41,4.2,15.25,2.87,22.84a17.36,17.36,0,0,1-3,7.35c.76,0,1.51,0,2.23,0,3.26,0,7.92-1.94,8.68-5.48C77.83,175.58,77,173.06,76.59,171Z" fill="#156819"></path></g></g></svg>