<svg id="Layer_2" data-name="Layer 2" xmlns="http://www.w3.org/2000/svg" viewBox="0 0 400 300" width="406" height="306" class="illustration styles_illustrationTablet__1DWOa"><title>PP</title><path d="M194.28,288.31,21.78,186.36c-5.49-3.08-10.2-8.15-4.85-11.46L190.05,75.12c2.6-1.61,6.54-2.66,9.18-1.13L380.31,179.09c5.49,3.19,6.48,12.1,1,15.29L217,288.15A22.94,22.94,0,0,1,194.28,288.31Z" fill="#b2581b"></path><polygon points="83.88 153.47 239.17 243.53 323.74 194.32 167.97 104.73 83.88 153.47" fill="#eeeff7"></polygon><polygon points="83.88 153.47 83.88 164.85 92.43 169.67 92.43 165.89 230.31 245.59 230.31 249.64 239.19 254.98 239.17 243.53 83.88 153.47" fill="#eeeff7"></polygon><polygon points="239.19 254.98 247.93 249.7 247.93 245.06 315.01 205.95 315.01 210.71 323.74 205.95 323.74 194.32 239.17 243.53 239.19 254.98" fill="#eeeff7"></polygon><polygon points="83.88 153.47 83.88 164.85 92.43 169.67 92.43 165.89 230.31 245.59 230.31 249.64 239.19 254.98 239.17 243.53 83.88 153.47" fill="#3c537c" opacity="0.16"></polygon><polygon points="92.43 169.67 95.8 167.84 92.43 165.89 92.43 169.67" fill="#b2581b"></polygon><polygon points="239.19 254.98 247.93 249.7 247.93 245.06 315.01 205.95 315.01 210.71 323.74 205.95 323.74 194.32 239.17 243.53 239.19 254.98" fill="#3c537c" opacity="0.45"></polygon><polygon points="315.01 210.71 311.01 208.28 315.01 205.95 315.01 210.71" fill="#914410"></polygon><g opacity="0.45"><line x1="93.23" y1="159.58" x2="178.11" y2="109.93" fill="#3c537c"></line><rect x="86.5" y="134.25" width="98.33" height="1" transform="translate(-49.47 86.92) rotate(-30.32)" fill="#3c537c"></rect><line x1="104.38" y1="165.89" x2="189.27" y2="116.25" fill="#3c537c"></line><rect x="97.66" y="140.57" width="98.33" height="1" transform="translate(-51.13 93.42) rotate(-30.32)" fill="#3c537c"></rect><line x1="116.32" y1="172.31" x2="201.2" y2="122.66" fill="#3c537c"></line><rect x="109.59" y="146.98" width="98.33" height="1" transform="translate(-52.74 100.32) rotate(-30.32)" fill="#3c537c"></rect><line x1="127.48" y1="178.62" x2="212.36" y2="128.98" fill="#3c537c"></line><rect x="120.75" y="153.3" width="98.33" height="1" transform="translate(-54.4 106.82) rotate(-30.32)" fill="#3c537c"></rect><line x1="138.93" y1="186.15" x2="223.82" y2="136.51" fill="#3c537c"></line><rect x="132.21" y="160.83" width="98.33" height="1" transform="translate(-56.64 113.63) rotate(-30.32)" fill="#3c537c"></rect><line x1="150.09" y1="192.47" x2="234.97" y2="142.82" fill="#3c537c"></line><rect x="143.36" y="167.14" width="98.33" height="1" transform="translate(-58.3 120.13) rotate(-30.32)" fill="#3c537c"></rect><line x1="162.03" y1="198.88" x2="246.91" y2="149.24" fill="#3c537c"></line><rect x="155.3" y="173.56" width="98.33" height="1" transform="translate(-59.9 127.03) rotate(-30.32)" fill="#3c537c"></rect><line x1="173.18" y1="205.2" x2="258.07" y2="155.55" fill="#3c537c"></line><rect x="166.46" y="179.87" width="98.33" height="1" transform="translate(-61.57 133.53) rotate(-30.32)" fill="#3c537c"></rect><line x1="184.51" y1="212.35" x2="269.39" y2="162.71" fill="#3c537c"></line><rect x="177.78" y="187.03" width="98.33" height="1" transform="translate(-63.63 140.23) rotate(-30.32)" fill="#3c537c"></rect><line x1="195.67" y1="218.67" x2="280.55" y2="169.02" fill="#3c537c"></line><rect x="188.94" y="193.34" width="98.33" height="1" transform="translate(-65.29 146.72) rotate(-30.32)" fill="#3c537c"></rect><line x1="207.6" y1="225.08" x2="292.48" y2="175.44" fill="#3c537c"></line><rect x="200.88" y="199.76" width="98.33" height="1" transform="translate(-66.86 153.36) rotate(-30.27)" fill="#3c537c"></rect><line x1="218.76" y1="231.4" x2="303.64" y2="181.75" fill="#3c537c"></line><rect x="212.03" y="206.07" width="98.33" height="1" transform="translate(-68.52 159.84) rotate(-30.27)" fill="#3c537c"></rect><line x1="229.34" y1="238.48" x2="314.23" y2="188.83" fill="#3c537c"></line><rect x="222.62" y="213.16" width="98.33" height="1" transform="translate(-70.65 166.15) rotate(-30.27)" fill="#3c537c"></rect></g><polyline points="138.93 126.57 138.93 145.32 171.55 145.32 171.55 126.57" fill="#02180c"></polyline><ellipse cx="155.24" cy="145.67" rx="16.31" ry="7.8" fill="#02180c"></ellipse><ellipse cx="155.24" cy="126.5" rx="16.31" ry="7.8" fill="#dfe0e2"></ellipse><polyline points="171.55 143.95 171.55 162.71 204.17 162.71 204.17 143.95" fill="#02180c"></polyline><ellipse cx="187.86" cy="163.05" rx="16.31" ry="7.8" fill="#02180c"></ellipse><ellipse cx="187.86" cy="143.88" rx="16.31" ry="7.8" fill="#dfe0e2"></ellipse><polyline points="206.55 163.12 206.55 181.87 239.17 181.87 239.17 163.12" fill="#02180c"></polyline><ellipse cx="222.86" cy="182.22" rx="16.31" ry="7.8" fill="#02180c"></ellipse><ellipse cx="222.86" cy="163.05" rx="16.31" ry="7.8" fill="#dfe0e2"></ellipse><path d="M330.44,40.58,256.23,180.33a1.24,1.24,0,0,0,1.11.68c1.18,0,2-1.38,2.45-2.3a.73.73,0,0,1,.32-.34L334.23,44.69A7.62,7.62,0,0,0,330.44,40.58Z" fill="#7c7c7c"></path><path d="M323.38,39.69,255.73,178.25s0,0,0,.05a4.65,4.65,0,0,0,.49,2L330.44,40.58A10.37,10.37,0,0,0,323.38,39.69Z" fill="#595959"></path><polyline points="239.17 180.5 239.17 199.26 271.79 199.26 271.79 180.5" fill="#02180c"></polyline><ellipse cx="255.48" cy="199.6" rx="16.31" ry="7.8" fill="#02180c"></ellipse><ellipse cx="255.48" cy="180.44" rx="16.31" ry="7.8" fill="#dfe0e2"></ellipse><path d="M370,70.28,265.29,187.86a1.24,1.24,0,0,0,.92.93c1.15.27,2.3-.86,2.93-1.66a.73.73,0,0,1,.39-.25l103-111.3A14.06,14.06,0,0,0,370,70.28Z" fill="#7c7c7c"></path><path d="M364.47,66.44,265.3,185.73s0,0,0,.05a4.65,4.65,0,0,0,0,2.08L370,70.28A11.84,11.84,0,0,0,364.47,66.44Z" fill="#595959"></path><path d="M225.09,159a2.53,2.53,0,0,0-.81-.37c-2.91-.75-8-.18-8.95,3.33-1,3.68,4.14,5.51,7,5.51,2.66,0,8-1,8-4.56C230.18,160.48,227.65,159.4,225.09,159Z" fill="#ec6b20"></path><path d="M261.77,177.18a26.8,26.8,0,0,0-6.65-1.66c-2.73-.34-5.85,0-8,1.86s-2.49,4.41,0,6.06c3.86,2.52,10.9,2.69,15.17,1.3,1.54-.5,3.2-1.78,3.19-3.56S263.83,178.06,261.77,177.18Z" fill="#95e046"></path><path d="M255.48,176.95s.61,6.21-.53,7.09-7.83,0-8.34-2.71S250.27,176.11,255.48,176.95Z" fill="#ea7926"></path><path d="M192.26,138.11a28.43,28.43,0,0,0-10,.43c-2.4.69-5.52,1.7-6,4.25-.83,4.69,6,6,9.79,6.27,4,.25,11.06-.14,12.9-4.09C201,140.67,197,138.74,192.26,138.11Z" fill="#ffd217"></path><path d="M194.25,140.11a2.24,2.24,0,0,0-2.37-2c-2.95.07-6.46.31-8.87,2.23s-2.63,4.9-.07,6.67c3.48,2.41,13.86,3.67,13.71-3A4.39,4.39,0,0,0,194.25,140.11Z" fill="#ec6b20"></path><path d="M199.05,140.92c-1.35-3.41-7.1-4.19-9.15-1a5.34,5.34,0,0,0-1.55,4.84,4.14,4.14,0,0,0,2.3,3.06,2.19,2.19,0,0,0,2.65,1,10,10,0,0,0,4.55-2.41A5.2,5.2,0,0,0,199.05,140.92Z" fill="#65a818"></path><path d="M159.45,121l-7.63,10.32a25.15,25.15,0,0,0,3.67.38h.18q3.17-5,6.77-9.69A10.25,10.25,0,0,0,159.45,121Z" fill="#552d2e"></path><path d="M145,125a3.52,3.52,0,0,0,.14,3,48,48,0,0,1,4.66-6.5C147.67,122.08,145.71,123.11,145,125Z" fill="#552d2e"></path><path d="M155.54,120.78c-.72,0-1.58.08-2.5.18a46.41,46.41,0,0,0-6.41,8.56,10.94,10.94,0,0,0,3.08,1.36l7.45-10.09C156.61,120.75,156.06,120.75,155.54,120.78Z" fill="#552d2e"></path><path d="M165.33,125.11a6.07,6.07,0,0,0-1.29-1.89q-3.12,4.07-5.9,8.36C162,131.09,167.18,129.39,165.33,125.11Z" fill="#552d2e"></path><path d="M149.84,121.51a48,48,0,0,0-4.66,6.5,4.55,4.55,0,0,0,1.45,1.5A46.41,46.41,0,0,1,153,121,21.37,21.37,0,0,0,149.84,121.51Z" fill="#af7579"></path><path d="M157.16,120.78l-7.45,10.09a20.6,20.6,0,0,0,2.11.48L159.45,121A16,16,0,0,0,157.16,120.78Z" fill="#af7579"></path><path d="M162.44,122q-3.6,4.7-6.77,9.69a19.41,19.41,0,0,0,2.46-.16q2.78-4.3,5.9-8.36A6.85,6.85,0,0,0,162.44,122Z" fill="#af7579"></path><path d="M216.29,161.44a1,1,0,0,1-1.24-1.24,1,1,0,0,0,0,2,1,1,0,0,1,1.24,1.24A1,1,0,0,0,216.29,161.44Z" fill="#d33c3c"></path><path d="M217.74,157.22a1,1,0,0,0-.54,1.82,1,1,0,1,0,.58.17A1,1,0,0,0,217.74,157.22Z" fill="#d33c3c"></path><path d="M220.14,159.55a1,1,0,0,0,0,2A1,1,0,0,0,220.14,159.55Z" fill="#d33c3c"></path><path d="M221.37,157.3a1,1,0,0,0,0,2A1,1,0,0,0,221.37,157.3Z" fill="#d33c3c"></path><path d="M226,158.89a1,1,0,0,0,0,2A1,1,0,0,0,226,158.89Z" fill="#d33c3c"></path><path d="M231.55,161.82a1,1,0,0,0-.73-1.69,1,1,0,0,0-.07,2,1.06,1.06,0,0,0,.2,1.52,1,1,0,0,0,.09,2,1,1,0,0,0,.53-1.84A1,1,0,0,0,231.55,161.82Z" fill="#d33c3c"></path><path d="M224.21,165.22a1,1,0,0,0,0,2A1,1,0,0,0,224.21,165.22Z" fill="#d33c3c"></path><path d="M228.71,165.36a1,1,0,0,0,0,2A1,1,0,0,0,228.71,165.36Z" fill="#d33c3c"></path><path d="M228.86,158a1,1,0,0,0,0,2A1,1,0,0,0,228.86,158Z" fill="#d33c3c"></path><path d="M224.23,161.91a1,1,0,0,0-.6-1.78,1,1,0,0,0-.17,2,1,1,0,0,0,.6,1.78A1,1,0,0,0,224.23,161.91Z" fill="#d33c3c"></path><path d="M221,161.66a1,1,0,0,0,0,2A1,1,0,0,0,221,161.66Z" fill="#d33c3c"></path><path d="M219.85,165.51a1,1,0,0,0,0,2A1,1,0,0,0,219.85,165.51Z" fill="#d33c3c"></path><path d="M217.3,163.25a1,1,0,0,0,0,2A1,1,0,0,0,217.3,163.25Z" fill="#d33c3c"></path><path d="M215.05,164.56a1,1,0,0,0,0,2A1,1,0,0,0,215.05,164.56Z" fill="#d33c3c"></path><path d="M219.56,163.11a1,1,0,0,0,0,2A1,1,0,0,0,219.56,163.11Z" fill="#d33c3c"></path><path d="M222.17,164.56a1,1,0,0,0,0,2A1,1,0,0,0,222.17,164.56Z" fill="#d33c3c"></path><path d="M224.86,156.93a1,1,0,0,0,0,2A1,1,0,0,0,224.86,156.93Z" fill="#d33c3c"></path><path d="M228.86,160.93a.91.91,0,0,0-.92.71,1,1,0,0,0-.43,1.18h0a1,1,0,0,0-.89,1.39.92.92,0,0,0-.7-.3,1,1,0,0,0-.35,1.93,1,1,0,0,0,.86,1.45,1,1,0,0,0,.35-1.93,1.12,1.12,0,0,0,0-.84.92.92,0,0,0,.7.3,1,1,0,0,0,.91-1.31h0a.91.91,0,0,0,.92-.71A1,1,0,0,0,228.86,160.93Z" fill="#d33c3c"></path><path d="M214,162.09a1,1,0,0,0,0,2A1,1,0,0,0,214,162.09Z" fill="#d33c3c"></path><path d="M214.91,157.37a1,1,0,0,0,0,2A1,1,0,0,0,214.91,157.37Z" fill="#d33c3c"></path></svg>